<svg xmlns="http://www.w3.org/2000/svg" viewBox="-252 400.9 90 40"><path d="M-252 409.9h26v2h-26zM-252 429.9h27v2h-27zM-177.3 419.9h15.3v2h-15.3z"/><path d="M-181.4 426.2c-2.9 0-5.3-2.4-5.3-5.3s2.4-5.3 5.3-5.3 5.3 2.4 5.3 5.3-2.4 5.3-5.3 5.3zm0-8.6c-1.8 0-3.3 1.5-3.3 3.3 0 1.8 1.5 3.3 3.3 3.3s3.3-1.5 3.3-3.3c0-1.8-1.5-3.3-3.3-3.3z"/><path d="M-185.3 422.6l-.3-2.1.4-1.6c-10.3-17.8-26-18-30.6-18H-233l2 2.4s5.7 7 5.7 17.6c0 10.6-5.7 17.6-5.7 17.6l-2 2.4h17.2c2.4 0 7.7 0 13.6-2.4 5.7-2.3 12-6.9 17-15.7l-.1-.2zm-18.2 13.1c-5.4 2.2-9.8 2.2-12.3 2.2H-227c1.9-3.1 4.8-9 4.8-17s-2.9-13.9-4.8-17h11.3c4.7 0 18.3-.1 28 17-4.8 8.4-10.6 12.7-15.8 14.8z"/></svg>