<svg xmlns="http://www.w3.org/2000/svg" width="90" height="40" version="1"><path d="M65 20h25M26 10H0M27 30H0" fill="none" stroke="#000" stroke-width="2"/><path d="M19.094 0l2 2.438s5.656 7 5.656 17.562c0 10.562-5.656 17.563-5.656 17.563l-2 2.437H36.25c2.408 0 7.69.025 13.625-2.406s12.537-7.344 17.688-16.875L66.25 20l1.313-.719C57.258.216 41.007 0 36.25 0H19.094zm5.875 3H36.25c4.684 0 18.287-.13 27.969 17-4.767 8.43-10.522 12.684-15.719 14.813C43.14 37.008 38.658 37 36.25 37H25c1.874-3.108 4.75-9.05 4.75-17 0-7.973-2.909-13.9-4.781-17z" fill-rule="evenodd"/></svg>