<svg xmlns="http://www.w3.org/2000/svg" viewBox="-252 400.9 90 40"><path d="M-252 409.9h26v2h-26zM-252 429.9h27v2h-27zM-186.5 419.9h24.5v2h-24.5z"/><path d="M-184.6 420.9c0-1-.6-2-.6-2-10.3-17.8-26-18-30.6-18H-233l2 2.4s5.7 7 5.7 17.6c0 10.6-5.7 17.6-5.7 17.6l-2 2.4h17.2c2.4 0 7.7 0 13.6-2.4 5.7-2.3 12-6.9 17-15.7.1 0 .6-1 .6-1.9zm-18.9 14.8c-5.4 2.2-9.8 2.2-12.3 2.2H-227c1.9-3.1 4.8-9 4.8-17s-2.9-13.9-4.8-17h11.3c4.7 0 18.3-.1 28 17-4.8 8.4-10.6 12.7-15.8 14.8z"/><path d="M-238.3 440.9h3.6c2.3-3.7 6.5-11.6 6.5-19.8 0-8.5-4.4-16.5-6.8-20.2h-3.6c1.4 2 7.4 11 7.4 20.2 0 8.9-5.7 17.7-7.1 19.8z"/></svg>